<svg width="54" height="22" viewBox="0 0 54 22" fill="none" xmlns="http://www.w3.org/2000/svg">
<path d="M35.5962 11.0577C35.5962 10.8078 35.6955 10.5681 35.8722 10.3914C36.0489 10.2147 36.2886 10.1154 36.5385 10.1154H45.0194V3.99036C45.0194 2.10573 43.0293 0.692261 41.2501 0.692261H32.2981C31.4237 0.693196 30.5853 1.04097 29.967 1.65929C29.3487 2.2776 29.0009 3.11594 29 3.99036V18.1251C29.0009 18.9995 29.3487 19.8379 29.967 20.4562C30.5853 21.0745 31.4237 21.4223 32.2981 21.4232H41.7213C42.5957 21.4223 43.434 21.0745 44.0523 20.4562C44.6706 19.8379 45.0184 18.9995 45.0194 18.1251V12H36.5385C36.2886 12 36.0489 11.9008 35.8722 11.724C35.6955 11.5473 35.5962 11.3076 35.5962 11.0577Z" fill="#FDFDFD"/>
<path d="M53.224 10.3916L48.5125 5.68006C48.3343 5.5108 48.0971 5.41783 47.8513 5.42098C47.6056 5.42412 47.3709 5.52313 47.1971 5.6969C47.0233 5.87066 46.9243 6.10543 46.9212 6.35115C46.918 6.59687 47.011 6.8341 47.1803 7.01225L50.2828 10.1154H45.0194V12H50.2828L47.1803 15.1032C47.0891 15.1898 47.0162 15.2939 46.9658 15.4091C46.9154 15.5244 46.8887 15.6485 46.8871 15.7743C46.8854 15.9001 46.909 16.0249 46.9564 16.1414C47.0038 16.2579 47.074 16.3637 47.163 16.4527C47.2519 16.5416 47.3578 16.6119 47.4743 16.6592C47.5908 16.7066 47.7156 16.7302 47.8414 16.7286C47.9671 16.727 48.0913 16.7002 48.2066 16.6499C48.3218 16.5995 48.4258 16.5266 48.5125 16.4354L53.224 11.7238C53.4006 11.5471 53.4998 11.3075 53.4998 11.0577C53.4998 10.8079 53.4006 10.5683 53.224 10.3916V10.3916Z" fill="#FDFDFD"/>
<path d="M7.58789 14.2773V16H2.29004V14.2773H7.58789ZM3.04883 6.04688V16H0.820312V6.04688H3.04883ZM6.9043 10.0527V11.7207H2.29004V10.0527H6.9043ZM7.59473 6.04688V7.77637H2.29004V6.04688H7.59473ZM10.3359 8.60352L11.4707 10.7432L12.6396 8.60352H14.8818L12.8652 12.2129L14.9775 16H12.7217L11.4775 13.7168L10.2402 16H7.97754L10.0898 12.2129L8.08008 8.60352H10.3359ZM17.999 8.60352V16H15.8594V8.60352H17.999ZM15.7295 6.68945C15.7295 6.37956 15.8389 6.12663 16.0576 5.93066C16.2764 5.73014 16.5635 5.62988 16.9189 5.62988C17.2744 5.62988 17.5615 5.73014 17.7803 5.93066C18.0036 6.12663 18.1152 6.37956 18.1152 6.68945C18.1152 6.99479 18.0036 7.24772 17.7803 7.44824C17.5615 7.64421 17.2744 7.74219 16.9189 7.74219C16.5635 7.74219 16.2764 7.64421 16.0576 7.44824C15.8389 7.24772 15.7295 6.99479 15.7295 6.68945ZM23.2969 8.60352V10.1006H18.9082V8.60352H23.2969ZM19.9131 6.77148H22.0527V13.6826C22.0527 13.8877 22.0778 14.0449 22.1279 14.1543C22.1781 14.2637 22.2601 14.3411 22.374 14.3867C22.488 14.4277 22.6338 14.4482 22.8115 14.4482C22.9391 14.4482 23.0485 14.4437 23.1396 14.4346C23.2308 14.4255 23.3151 14.4141 23.3926 14.4004V15.9453C23.2103 16.0046 23.0166 16.0501 22.8115 16.082C22.6064 16.1185 22.3831 16.1367 22.1416 16.1367C21.6813 16.1367 21.2826 16.0615 20.9453 15.9111C20.6126 15.7607 20.3574 15.5238 20.1797 15.2002C20.002 14.8721 19.9131 14.446 19.9131 13.9219V6.77148Z" fill="#FDFDFD"/>
</svg>
